<?xml version="1.0" encoding="utf-8"?>
<!-- Generator: Adobe Illustrator 16.0.0, SVG Export Plug-In . SVG Version: 6.00 Build 0)  -->
<!DOCTYPE svg PUBLIC "-//W3C//DTD SVG 1.1//EN" "http://www.w3.org/Graphics/SVG/1.1/DTD/svg11.dtd">
<svg version="1.1" id="Layer_1" xmlns="http://www.w3.org/2000/svg" xmlns:xlink="http://www.w3.org/1999/xlink" x="0px" y="0px"
	 width="267.833px" height="354.857px" viewBox="0 0 267.833 354.857" enable-background="new 0 0 267.833 354.857"
	 xml:space="preserve">
<g>
	<path d="M237.001,45.646c-7.387-11.62-16.641-21.652-27.217-30.016c-21.117-16.699-54.738,21.566-78.015,34.197
		C108.493,37.197,74.872-1.068,53.756,15.63c-10.574,8.364-19.831,18.396-27.218,30.016C12.257,68.12,1.937,71.308,1.937,97.86
		c0,29.536,28.383,100.825,34.18,106.728c10.46,10.644,25.427,25.621,40.645,28.591c0.205,0.041,0.416,0.082,0.621,0.123
		c23.778-19.661,33.901-28.033,54.387-44.973c20.49,16.939,30.611,25.312,54.388,44.973c0.207-0.041,0.416-0.082,0.623-0.123
		c15.217-2.97,30.186-17.947,40.643-28.591c5.799-5.902,34.182-77.191,34.182-106.728C261.605,71.308,251.283,68.12,237.001,45.646z
		"/>
	<g>
		<path d="M30.028,173.575c0,0-12.666-12.025-20.551-6.035c-2.682,2.042-6.923,8.351-3.451,17.139
			c10.022,25.358,12.679,44.245,22.052,48.126c7.5,3.105,18.179-6.952,18.179-6.952L30.028,173.575z"/>
		<path d="M36.501,214.535c-1.432-36.972-23.372-36.972-23.372-36.972c5.577,7.319,6.954,12.599,8.237,20.556
			c0.41,2.541,1.565,10.161,1.227,13.156C20.754,227.557,37.048,228.646,36.501,214.535z"/>
	</g>
	<g>
		<path d="M234.337,173.575c0,0,12.664-12.025,20.553-6.035c2.684,2.042,6.922,8.351,3.449,17.139
			c-10.02,25.358-12.682,44.245-22.053,48.126c-7.5,3.105-18.178-6.952-18.178-6.952L234.337,173.575z"/>
		<path d="M227.865,214.535c1.43-36.972,23.371-36.972,23.371-36.972c-5.578,7.319-6.951,12.599-8.234,20.556
			c-0.412,2.541-1.568,10.161-1.229,13.156C243.613,227.557,227.316,228.646,227.865,214.535z"/>
	</g>
	<path fill="#FFFFFF" stroke="#231F20" stroke-width="3.2254" stroke-miterlimit="10" d="M132.558,2.255
		C115.29,2.078,9.104,0.072,16.547,101.288c3.037,51.587,8.68,118.899,18.283,142.907c16.362,40.903,76.901,92.44,97.35,92.44
		c20.455,0,80.994-51.537,97.353-92.44c9.627-24.071,15.283-91.713,18.314-143.354C255.224,3.089,149.818,2.43,132.558,2.255z"/>
	<path d="M146.382,229.194c0,0,0.119,4.215-3.251,6.498c-3.366,2.287-10.951,1.446-10.951,1.446s-7.579,0.841-10.949-1.446
		c-3.37-2.283-3.247-6.498-3.247-6.498c-4.092,0.359-6.139,5.538-3.008,10.829c2.009,3.405,8.548,3.686,12.958,3.452
		c2.828-0.151,5.666-0.151,8.495,0c4.413,0.233,10.948-0.047,12.961-3.452C152.517,234.732,150.474,229.554,146.382,229.194z"/>
	<g>
		<g>
			<defs>
				<path id="SVGID_1_" d="M157.914,172.473c0,0,7.086-20.448,28.086-20.448s32.453,11.453,32.453,11.453
					s-4.971,13.742-15.139,16.089c-12.42,2.86-23.041,3.134-30.678,0.627C168.458,178.823,165.277,177.384,157.914,172.473z"/>
			</defs>
			<clipPath id="SVGID_2_">
				<use xlink:href="#SVGID_1_"  overflow="visible"/>
			</clipPath>
			<path clip-path="url(#SVGID_2_)" fill="#FFFFFF" d="M157.914,172.473c0,0,7.086-20.448,28.086-20.448
				s32.453,11.453,32.453,11.453s-4.971,13.742-15.139,16.089c-12.42,2.86-23.041,3.134-30.678,0.627
				C168.458,178.823,165.277,177.384,157.914,172.473z"/>
			<path clip-path="url(#SVGID_2_)" fill="#020202" d="M205.236,165.121c0,9.418-7.635,17.054-17.053,17.054
				c-9.422,0-17.059-7.636-17.059-17.054c0-9.421,7.637-17.059,17.059-17.059C197.601,148.063,205.236,155.7,205.236,165.121z"/>
			<path clip-path="url(#SVGID_2_)" fill="#3E1314" d="M186,160.066c16.326,0,26.789,4.142,30.684,7.222
				c1.148-2.18,1.77-3.811,1.77-3.811S207,152.024,186,152.024s-28.086,20.448-28.086,20.448c0.684,0.457,1.297,0.854,1.912,1.254
				C163.111,167.768,170.992,160.066,186,160.066z"/>
			<path clip-path="url(#SVGID_2_)" d="M203.314,176.189c-12.42,2.863-23.041,3.138-30.678,0.63
				c-3.943-1.294-7.047-2.689-13.57-6.967c-0.775,1.575-1.152,2.62-1.152,2.62c7.363,4.911,10.545,6.351,14.723,7.721
				c7.637,2.507,18.258,2.233,30.678-0.627c10.168-2.347,15.139-16.089,15.139-16.089s-0.441-0.397-1.07-0.933
				C215.439,166.596,210.794,174.464,203.314,176.189z"/>
		</g>
		<g>
			<defs>
				<path id="SVGID_3_" d="M106.452,172.473c0,0-7.09-20.448-28.09-20.448c-20.995,0-32.449,11.453-32.449,11.453
					s4.967,13.742,15.135,16.089c12.42,2.86,23.041,3.134,30.676,0.627C95.903,178.823,99.088,177.384,106.452,172.473z"/>
			</defs>
			<clipPath id="SVGID_4_">
				<use xlink:href="#SVGID_3_"  overflow="visible"/>
			</clipPath>
			<path clip-path="url(#SVGID_4_)" fill="#FFFFFF" d="M106.452,172.473c0,0-7.09-20.448-28.09-20.448
				c-20.995,0-32.449,11.453-32.449,11.453s4.967,13.742,15.135,16.089c12.42,2.86,23.041,3.134,30.676,0.627
				C95.903,178.823,99.088,177.384,106.452,172.473z"/>
			<circle clip-path="url(#SVGID_4_)" cx="76.181" cy="165.121" r="17.055"/>
			<path clip-path="url(#SVGID_4_)" fill="#3E1314" d="M78.362,160.066c-16.322,0-26.791,4.142-30.679,7.222
				c-1.151-2.18-1.771-3.811-1.771-3.811s11.455-11.453,32.449-11.453c21,0,28.09,20.448,28.09,20.448
				c-0.687,0.457-1.298,0.854-1.916,1.254C101.251,167.768,93.374,160.066,78.362,160.066z"/>
			<path clip-path="url(#SVGID_4_)" d="M61.047,176.189c12.42,2.863,23.041,3.138,30.676,0.63c3.946-1.294,7.049-2.689,13.575-6.967
				c0.775,1.575,1.153,2.62,1.153,2.62c-7.364,4.911-10.549,6.351-14.729,7.721c-7.635,2.507-18.256,2.233-30.676-0.627
				c-10.167-2.347-15.135-16.089-15.135-16.089s0.437-0.397,1.068-0.933C48.924,166.596,53.567,174.464,61.047,176.189z"/>
		</g>
	</g>
	<path fill="#020202" d="M186,160.066c16.326,0,26.789,4.142,30.684,7.222c1.148-2.18,1.77-3.811,1.77-3.811
		S207,149.567,186,149.567s-28.086,22.905-28.086,22.905c0.684,0.46,1.297,0.857,1.912,1.254
		C163.111,167.768,170.992,160.066,186,160.066z"/>
	<path fill="#020202" d="M78.362,160.066c-16.322,0-26.791,4.142-30.679,7.222c-1.151-2.18-1.771-3.811-1.771-3.811
		s11.455-13.91,32.449-13.91c21,0,28.09,22.905,28.09,22.905c-0.687,0.46-1.298,0.857-1.916,1.254
		C101.251,167.768,93.374,160.066,78.362,160.066z"/>
	<path d="M227.923,126.722c0,0-7.014-10.007-34.102-12.149c-33.615-2.658-34.652,3.144-34.674,14.716
		c-0.025,11.576,26.979,8.146,39.121,9.006C210.414,139.148,232.314,134.008,227.923,126.722z"/>
	<path d="M36.439,126.722c0,0,7.017-10.007,34.103-12.149c33.613-2.658,34.649,3.144,34.675,14.716
		c0.022,11.576-26.978,8.146-39.122,9.006C53.953,139.148,32.05,134.008,36.439,126.722z"/>
	<path d="M132.18,262.299c-16.266,0-30.875-3.486-30.875-3.486c0.784,3.902,4.8,11.298,9.695,13.969
		c13.324,7.283,29.038,7.283,42.365,0c4.893-2.671,8.908-10.066,9.691-13.969C163.056,258.813,148.451,262.299,132.18,262.299z"/>
	<path d="M249.355,119.138h-8.996c0.682,11.329,1.258,22.896,0.395,32.887c-3.301,38.415-23.51,75.608-30.131,92.17
		c-0.504,1.253-1.162,2.538-1.746,3.811c-3.584,2.477-7.193,4.908-10.816,7.264c-10.299-3.547-35.654-11.056-65.95-11.074l0,0
		c-0.007,0-0.013,0-0.013,0c-0.016,0-0.022,0-0.028,0l0,0c-30.298,0.019-55.654,7.527-65.956,11.074
		c-3.621-2.355-7.229-4.787-10.813-7.264c-0.584-1.272-1.243-2.558-1.744-3.811c-6.624-16.562-26.833-53.755-30.136-92.17
		c-0.858-9.991-1.942-21.558-1.261-32.887h-7.339c3.171,39.603,8.829,83.879,15.511,110.385c-0.137-0.107-0.283-0.221-0.42-0.328
		c2.993,32.125,7.125,54.637,12.713,68.603c15.024,37.564,70.53,55.991,89.445,56.061l0,0c0.006,0,0.016,0,0.019,0
		c0,0,0.016,0,0.022,0l0,0c18.911-0.069,74.417-18.496,89.442-56.061c5.588-13.966,9.721-36.478,12.713-68.603
		c-0.137,0.107-0.283,0.221-0.42,0.328C240.527,203.017,246.183,158.74,249.355,119.138z M132.088,285.671
		c-10.082-0.044-27.116-7.364-45.908-18.093c16.203-9.506,44.973-10.444,45.908-10.477c0.936,0.032,29.707,0.971,45.912,10.477
		C159.205,278.307,142.171,285.627,132.088,285.671z"/>
	<path d="M76.176,4.584C46.605-2.774,19.528,12.29,8.04,47.806c-7.186,22.217-8.289,58.975-0.038,83.049
		c4.884,2,9.651,4.236,14.291,6.7c0.713-11.825,0.321-24.166,4.446-35.455c2.041-5.594,5.274-10.615,9.804-14.505
		c4.497-3.865,10.098-7.333,13.535-12.256c6.517-9.345,7.516-19.806,11.763-30.042c3.739-9.01,10.812-15.998,15.782-24.272
		C80.936,15.511,85.66,6.943,76.176,4.584z"/>
	<path d="M187.279,4.584c29.566-7.358,56.643,7.706,68.133,43.222c7.189,22.217,8.291,58.975,0.039,83.049
		c-4.883,2-9.652,4.236-14.291,6.7c-0.715-11.825-0.322-24.166-4.445-35.455c-2.043-5.594-5.275-10.615-9.801-14.505
		c-4.502-3.865-10.102-7.333-13.539-12.256c-6.516-9.345-7.516-19.806-11.762-30.042c-3.74-9.01-10.809-15.998-15.783-24.272
		C182.517,15.511,177.792,6.943,187.279,4.584z"/>
</g>
</svg>
