<svg width="30" height="40" viewBox="0 0 30 40" fill="none" xmlns="http://www.w3.org/2000/svg">
<g clip-path="url(#clip0_2228_1384)">
<path d="M15 40C12.1533 40 8.96818 37.477 5.2555 32.2951C1.40348 26.9094 0.826172 19.0299 0.826172 14.8184C0.826172 7.2008 7.18649 1 15 1C22.8136 1 29.1739 7.2008 29.1739 14.8184C29.1739 16.6912 28.9649 26.3563 24.8043 32.7027C21.7087 37.4091 18.2349 40.0097 15.01 40.0097L15 40ZM15 1.77631C7.62445 1.77631 1.62246 7.62777 1.62246 14.8184C1.62246 18.9425 2.17985 26.6474 5.90248 31.8584C9.39618 36.7492 12.4519 39.2237 14.9901 39.2237C17.8965 39.2237 21.221 36.691 24.1175 32.2757C28.1586 26.1137 28.3676 16.6524 28.3676 14.8087C28.3676 7.62777 22.3756 1.77631 15 1.77631Z" fill="#A4A4A4"/>
<path d="M14.9304 37.0403C14.7711 37.0403 14.582 37.0209 14.363 36.9627C12.1235 36.3804 11.7452 34.624 11.8547 33.7701C11.8846 33.5566 12.0837 33.4013 12.3026 33.4305C12.5216 33.4596 12.6709 33.6536 12.651 33.8671C12.651 33.9448 12.4619 35.6624 14.5721 36.2155C14.9503 36.3125 15.1991 36.2349 15.2091 36.2252C15.4977 36.1767 17.2695 35.8758 17.1003 33.6439C17.0903 33.4305 17.2496 33.2461 17.4685 33.2267C17.7074 33.2267 17.8766 33.3722 17.8965 33.5857C18.0956 36.3707 15.8162 36.8948 15.448 36.9627C15.3683 36.9918 15.1792 37.0306 14.9304 37.0306V37.0403Z" fill="#A4A4A4"/>
<path d="M19.5885 29.3354C18.5832 29.3354 17.9163 29.1802 17.8467 29.1607C17.6376 29.1122 17.5082 28.8987 17.558 28.6853C17.6078 28.4815 17.8268 28.3456 18.0457 28.4038C18.0856 28.4038 21.5992 29.2287 24.635 26.8318C24.8042 26.696 25.053 26.7251 25.1924 26.89C25.3317 27.055 25.3019 27.2976 25.1327 27.4334C23.1519 28.9958 21.0318 29.3257 19.5885 29.3257V29.3354Z" fill="#A4A4A4"/>
<path d="M10.6005 29.2675C9.00793 29.2675 6.15126 29.0152 5.23553 27.3267C5.136 27.1423 5.20567 26.8997 5.40474 26.8027C5.60382 26.7056 5.8427 26.7736 5.94224 26.9677C6.79824 28.5397 10.3417 28.5785 11.6456 28.4621C11.8746 28.4426 12.0637 28.5979 12.0836 28.8114C12.1035 29.0249 11.9442 29.219 11.7252 29.2384C11.6655 29.2384 11.2375 29.2772 10.6204 29.2772L10.6005 29.2675Z" fill="#A4A4A4"/>
<path d="M27.0772 20.0933C27.5224 20.0933 27.8834 19.7414 27.8834 19.3073C27.8834 18.8732 27.5224 18.5212 27.0772 18.5212C26.6319 18.5212 26.2709 18.8732 26.2709 19.3073C26.2709 19.7414 26.6319 20.0933 27.0772 20.0933Z" fill="#F02A2A"/>
<path d="M27.0772 16.3397C27.5224 16.3397 27.8834 15.9878 27.8834 15.5537C27.8834 15.1196 27.5224 14.7677 27.0772 14.7677C26.6319 14.7677 26.2709 15.1196 26.2709 15.5537C26.2709 15.9878 26.6319 16.3397 27.0772 16.3397Z" fill="#F02A2A"/>
<path d="M27.0772 12.8327C27.5224 12.8327 27.8834 12.4807 27.8834 12.0466C27.8834 11.6125 27.5224 11.2606 27.0772 11.2606C26.6319 11.2606 26.2709 11.6125 26.2709 12.0466C26.2709 12.4807 26.6319 12.8327 27.0772 12.8327Z" fill="#F02A2A"/>
<path d="M23.6956 20.0933C24.1409 20.0933 24.5019 19.7414 24.5019 19.3073C24.5019 18.8732 24.1409 18.5212 23.6956 18.5212C23.2504 18.5212 22.8894 18.8732 22.8894 19.3073C22.8894 19.7414 23.2504 20.0933 23.6956 20.0933Z" fill="#F02A2A"/>
<path d="M23.6956 16.3397C24.1409 16.3397 24.5019 15.9878 24.5019 15.5537C24.5019 15.1196 24.1409 14.7677 23.6956 14.7677C23.2504 14.7677 22.8894 15.1196 22.8894 15.5537C22.8894 15.9878 23.2504 16.3397 23.6956 16.3397Z" fill="#F02A2A"/>
<path d="M23.6956 12.8327C24.1409 12.8327 24.5019 12.4807 24.5019 12.0466C24.5019 11.6125 24.1409 11.2606 23.6956 11.2606C23.2504 11.2606 22.8894 11.6125 22.8894 12.0466C22.8894 12.4807 23.2504 12.8327 23.6956 12.8327Z" fill="#F02A2A"/>
<path d="M23.6956 9.07911C24.1409 9.07911 24.5019 8.7272 24.5019 8.2931C24.5019 7.85899 24.1409 7.50708 23.6956 7.50708C23.2504 7.50708 22.8894 7.85899 22.8894 8.2931C22.8894 8.7272 23.2504 9.07911 23.6956 9.07911Z" fill="#F02A2A"/>
<path d="M20.314 20.0933C20.7593 20.0933 21.1203 19.7414 21.1203 19.3073C21.1203 18.8732 20.7593 18.5212 20.314 18.5212C19.8688 18.5212 19.5078 18.8732 19.5078 19.3073C19.5078 19.7414 19.8688 20.0933 20.314 20.0933Z" fill="#F02A2A"/>
<path d="M20.314 16.3397C20.7593 16.3397 21.1203 15.9878 21.1203 15.5537C21.1203 15.1196 20.7593 14.7677 20.314 14.7677C19.8688 14.7677 19.5078 15.1196 19.5078 15.5537C19.5078 15.9878 19.8688 16.3397 20.314 16.3397Z" fill="#F02A2A"/>
<path d="M20.314 12.8327C20.7593 12.8327 21.1203 12.4807 21.1203 12.0466C21.1203 11.6125 20.7593 11.2606 20.314 11.2606C19.8688 11.2606 19.5078 11.6125 19.5078 12.0466C19.5078 12.4807 19.8688 12.8327 20.314 12.8327Z" fill="#F02A2A"/>
<path d="M20.314 9.07911C20.7593 9.07911 21.1203 8.7272 21.1203 8.2931C21.1203 7.85899 20.7593 7.50708 20.314 7.50708C19.8688 7.50708 19.5078 7.85899 19.5078 8.2931C19.5078 8.7272 19.8688 9.07911 20.314 9.07911Z" fill="#F02A2A"/>
<path d="M20.314 5.32557C20.7593 5.32557 21.1203 4.97366 21.1203 4.53956C21.1203 4.10545 20.7593 3.75354 20.314 3.75354C19.8688 3.75354 19.5078 4.10545 19.5078 4.53956C19.5078 4.97366 19.8688 5.32557 20.314 5.32557Z" fill="#F02A2A"/>
<path d="M16.9325 20.0933C17.3777 20.0933 17.7387 19.7414 17.7387 19.3073C17.7387 18.8732 17.3777 18.5212 16.9325 18.5212C16.4872 18.5212 16.1262 18.8732 16.1262 19.3073C16.1262 19.7414 16.4872 20.0933 16.9325 20.0933Z" fill="#F02A2A"/>
<path d="M16.9325 16.3397C17.3777 16.3397 17.7387 15.9878 17.7387 15.5537C17.7387 15.1196 17.3777 14.7677 16.9325 14.7677C16.4872 14.7677 16.1262 15.1196 16.1262 15.5537C16.1262 15.9878 16.4872 16.3397 16.9325 16.3397Z" fill="#F02A2A"/>
<path d="M16.9325 12.8327C17.3777 12.8327 17.7387 12.4807 17.7387 12.0466C17.7387 11.6125 17.3777 11.2606 16.9325 11.2606C16.4872 11.2606 16.1262 11.6125 16.1262 12.0466C16.1262 12.4807 16.4872 12.8327 16.9325 12.8327Z" fill="#F02A2A"/>
<path d="M16.9325 9.07911C17.3777 9.07911 17.7387 8.7272 17.7387 8.2931C17.7387 7.85899 17.3777 7.50708 16.9325 7.50708C16.4872 7.50708 16.1262 7.85899 16.1262 8.2931C16.1262 8.7272 16.4872 9.07911 16.9325 9.07911Z" fill="#F02A2A"/>
<path d="M16.9325 5.32557C17.3777 5.32557 17.7387 4.97366 17.7387 4.53956C17.7387 4.10545 17.3777 3.75354 16.9325 3.75354C16.4872 3.75354 16.1262 4.10545 16.1262 4.53956C16.1262 4.97366 16.4872 5.32557 16.9325 5.32557Z" fill="#F02A2A"/>
<path d="M13.5509 20.0933C13.9961 20.0933 14.3571 19.7414 14.3571 19.3073C14.3571 18.8732 13.9961 18.5212 13.5509 18.5212C13.1056 18.5212 12.7446 18.8732 12.7446 19.3073C12.7446 19.7414 13.1056 20.0933 13.5509 20.0933Z" fill="#F02A2A"/>
<path d="M13.5509 16.3397C13.9961 16.3397 14.3571 15.9878 14.3571 15.5537C14.3571 15.1196 13.9961 14.7677 13.5509 14.7677C13.1056 14.7677 12.7446 15.1196 12.7446 15.5537C12.7446 15.9878 13.1056 16.3397 13.5509 16.3397Z" fill="#F02A2A"/>
<path d="M13.5509 12.8327C13.9961 12.8327 14.3571 12.4807 14.3571 12.0466C14.3571 11.6125 13.9961 11.2606 13.5509 11.2606C13.1056 11.2606 12.7446 11.6125 12.7446 12.0466C12.7446 12.4807 13.1056 12.8327 13.5509 12.8327Z" fill="#F02A2A"/>
<path d="M13.5509 9.07911C13.9961 9.07911 14.3571 8.7272 14.3571 8.2931C14.3571 7.85899 13.9961 7.50708 13.5509 7.50708C13.1056 7.50708 12.7446 7.85899 12.7446 8.2931C12.7446 8.7272 13.1056 9.07911 13.5509 9.07911Z" fill="#F02A2A"/>
<path d="M13.5509 5.32557C13.9961 5.32557 14.3571 4.97366 14.3571 4.53956C14.3571 4.10545 13.9961 3.75354 13.5509 3.75354C13.1056 3.75354 12.7446 4.10545 12.7446 4.53956C12.7446 4.97366 13.1056 5.32557 13.5509 5.32557Z" fill="#F02A2A"/>
<path d="M10.1694 20.0933C10.6147 20.0933 10.9756 19.7414 10.9756 19.3073C10.9756 18.8732 10.6147 18.5212 10.1694 18.5212C9.72412 18.5212 9.36316 18.8732 9.36316 19.3073C9.36316 19.7414 9.72412 20.0933 10.1694 20.0933Z" fill="#F02A2A"/>
<path d="M10.1694 16.3397C10.6147 16.3397 10.9756 15.9878 10.9756 15.5537C10.9756 15.1196 10.6147 14.7677 10.1694 14.7677C9.72412 14.7677 9.36316 15.1196 9.36316 15.5537C9.36316 15.9878 9.72412 16.3397 10.1694 16.3397Z" fill="#F02A2A"/>
<path d="M10.1694 12.8327C10.6147 12.8327 10.9756 12.4807 10.9756 12.0466C10.9756 11.6125 10.6147 11.2606 10.1694 11.2606C9.72412 11.2606 9.36316 11.6125 9.36316 12.0466C9.36316 12.4807 9.72412 12.8327 10.1694 12.8327Z" fill="#F02A2A"/>
<path d="M10.1694 9.07911C10.6147 9.07911 10.9756 8.7272 10.9756 8.2931C10.9756 7.85899 10.6147 7.50708 10.1694 7.50708C9.72412 7.50708 9.36316 7.85899 9.36316 8.2931C9.36316 8.7272 9.72412 9.07911 10.1694 9.07911Z" fill="#F02A2A"/>
<path d="M10.1694 5.32557C10.6147 5.32557 10.9756 4.97366 10.9756 4.53956C10.9756 4.10545 10.6147 3.75354 10.1694 3.75354C9.72412 3.75354 9.36316 4.10545 9.36316 4.53956C9.36316 4.97366 9.72412 5.32557 10.1694 5.32557Z" fill="#F02A2A"/>
<path d="M6.7878 20.0933C7.23308 20.0933 7.59404 19.7414 7.59404 19.3073C7.59404 18.8732 7.23308 18.5212 6.7878 18.5212C6.34253 18.5212 5.98157 18.8732 5.98157 19.3073C5.98157 19.7414 6.34253 20.0933 6.7878 20.0933Z" fill="#F02A2A"/>
<path d="M6.7878 16.3397C7.23308 16.3397 7.59404 15.9878 7.59404 15.5537C7.59404 15.1196 7.23308 14.7677 6.7878 14.7677C6.34253 14.7677 5.98157 15.1196 5.98157 15.5537C5.98157 15.9878 6.34253 16.3397 6.7878 16.3397Z" fill="#F02A2A"/>
<path d="M6.7878 12.8327C7.23308 12.8327 7.59404 12.4807 7.59404 12.0466C7.59404 11.6125 7.23308 11.2606 6.7878 11.2606C6.34253 11.2606 5.98157 11.6125 5.98157 12.0466C5.98157 12.4807 6.34253 12.8327 6.7878 12.8327Z" fill="#F02A2A"/>
<path d="M6.7878 9.07911C7.23308 9.07911 7.59404 8.7272 7.59404 8.2931C7.59404 7.85899 7.23308 7.50708 6.7878 7.50708C6.34253 7.50708 5.98157 7.85899 5.98157 8.2931C5.98157 8.7272 6.34253 9.07911 6.7878 9.07911Z" fill="#F02A2A"/>
<path d="M3.40621 20.0933C3.85149 20.0933 4.21245 19.7414 4.21245 19.3073C4.21245 18.8732 3.85149 18.5212 3.40621 18.5212C2.96094 18.5212 2.59998 18.8732 2.59998 19.3073C2.59998 19.7414 2.96094 20.0933 3.40621 20.0933Z" fill="#F02A2A"/>
<path d="M3.40621 16.3397C3.85149 16.3397 4.21245 15.9878 4.21245 15.5537C4.21245 15.1196 3.85149 14.7677 3.40621 14.7677C2.96094 14.7677 2.59998 15.1196 2.59998 15.5537C2.59998 15.9878 2.96094 16.3397 3.40621 16.3397Z" fill="#F02A2A"/>
<path d="M3.40621 12.8327C3.85149 12.8327 4.21245 12.4807 4.21245 12.0466C4.21245 11.6125 3.85149 11.2606 3.40621 11.2606C2.96094 11.2606 2.59998 11.6125 2.59998 12.0466C2.59998 12.4807 2.96094 12.8327 3.40621 12.8327Z" fill="#F02A2A"/>
<path d="M23.6956 24.072C24.1409 24.072 24.5019 23.7201 24.5019 23.286C24.5019 22.8519 24.1409 22.5 23.6956 22.5C23.2504 22.5 22.8894 22.8519 22.8894 23.286C22.8894 23.7201 23.2504 24.072 23.6956 24.072Z" fill="#F02A2A"/>
<path d="M20.314 24.072C20.7593 24.072 21.1203 23.7201 21.1203 23.286C21.1203 22.8519 20.7593 22.5 20.314 22.5C19.8688 22.5 19.5078 22.8519 19.5078 23.286C19.5078 23.7201 19.8688 24.072 20.314 24.072Z" fill="#F02A2A"/>
<path d="M16.9325 24.072C17.3777 24.072 17.7387 23.7201 17.7387 23.286C17.7387 22.8519 17.3777 22.5 16.9325 22.5C16.4872 22.5 16.1262 22.8519 16.1262 23.286C16.1262 23.7201 16.4872 24.072 16.9325 24.072Z" fill="#F02A2A"/>
<path d="M13.5509 24.072C13.9961 24.072 14.3571 23.7201 14.3571 23.286C14.3571 22.8519 13.9961 22.5 13.5509 22.5C13.1056 22.5 12.7446 22.8519 12.7446 23.286C12.7446 23.7201 13.1056 24.072 13.5509 24.072Z" fill="#F02A2A"/>
<path d="M10.1694 24.072C10.6147 24.072 10.9756 23.7201 10.9756 23.286C10.9756 22.8519 10.6147 22.5 10.1694 22.5C9.72412 22.5 9.36316 22.8519 9.36316 23.286C9.36316 23.7201 9.72412 24.072 10.1694 24.072Z" fill="#F02A2A"/>
<path d="M6.7878 24.072C7.23308 24.072 7.59404 23.7201 7.59404 23.286C7.59404 22.8519 7.23308 22.5 6.7878 22.5C6.34253 22.5 5.98157 22.8519 5.98157 23.286C5.98157 23.7201 6.34253 24.072 6.7878 24.072Z" fill="#F02A2A"/>
<path d="M3.40621 24.072C3.85149 24.072 4.21245 23.7201 4.21245 23.286C4.21245 22.8519 3.85149 22.5 3.40621 22.5C2.96094 22.5 2.59998 22.8519 2.59998 23.286C2.59998 23.7201 2.96094 24.072 3.40621 24.072Z" fill="#F02A2A"/>
<path d="M27.3424 26.1331C27.2429 26.1331 27.1433 26.0943 27.0637 26.0167C26.9045 25.8614 26.9045 25.6188 27.0637 25.4636C28.9848 23.5907 29.2834 22.3486 29.1938 21.6305C29.1042 20.8833 28.5667 20.5437 28.5667 20.5437C28.3776 20.4272 28.3179 20.1943 28.4373 20.01C28.5567 19.8256 28.7956 19.7674 28.9848 19.8838C29.0246 19.9032 29.8507 20.4175 29.9901 21.5432C30.1493 22.8241 29.353 24.3282 27.6311 26.0167C27.5514 26.0943 27.4519 26.1331 27.3524 26.1331H27.3424Z" fill="#A4A4A4"/>
<path d="M2.65762 26.1331C2.55808 26.1331 2.44859 26.0943 2.37892 26.0167C0.656952 24.3379 -0.139332 22.8338 0.0199244 21.5432C0.159274 20.4175 0.985419 19.9129 1.02523 19.8838C1.21435 19.7771 1.46319 19.8256 1.57268 20.01C1.68217 20.1943 1.6324 20.4272 1.44328 20.5437C1.41342 20.5631 0.895837 20.9027 0.806255 21.6499C0.726627 22.3583 1.03519 23.6004 2.94627 25.4636C3.10553 25.6188 3.10553 25.8614 2.94627 26.0167C2.86664 26.0943 2.7671 26.1331 2.66757 26.1331H2.65762Z" fill="#A4A4A4"/>
</g>
<defs>
<clipPath id="clip0_2228_1384">
<rect width="30" height="39" fill="white" transform="translate(0 1)"/>
</clipPath>
</defs>
</svg>
