<svg width="10" height="12" viewBox="0 0 10 12" fill="none" xmlns="http://www.w3.org/2000/svg">
<path d="M4.48438 3.37505H5.51562V6.00005H9.35938C9.49613 6.00005 9.62728 5.94573 9.72398 5.84903C9.82067 5.75233 9.875 5.62118 9.875 5.48443V3.89068C9.875 3.75393 9.82067 3.62278 9.72398 3.52608C9.62728 3.42938 9.49613 3.37505 9.35938 3.37505H7.95734C8.14721 2.98403 8.19142 2.53811 8.08206 2.11741C7.97269 1.69671 7.7169 1.32879 7.36064 1.07973C7.00438 0.830678 6.57099 0.716809 6.13831 0.75858C5.70564 0.800351 5.30204 0.995024 5 1.30763C4.69744 0.996738 4.29418 0.803569 3.8623 0.762653C3.43041 0.721736 2.99805 0.835739 2.64249 1.08428C2.28693 1.33283 2.03135 1.69972 1.92142 2.11938C1.81149 2.53904 1.85438 2.98411 2.04242 3.37505H0.640625C0.503873 3.37505 0.372721 3.42938 0.276023 3.52608C0.179325 3.62278 0.125 3.75393 0.125 3.89068V5.48443C0.125 5.62118 0.179325 5.75233 0.276023 5.84903C0.323903 5.89691 0.380745 5.93489 0.443304 5.9608C0.505862 5.98672 0.572912 6.00005 0.640625 6.00005H4.48438V3.37505ZM5.51562 2.57818C5.51562 2.42057 5.56236 2.26651 5.64992 2.13546C5.73748 2.00441 5.86194 1.90228 6.00755 1.84196C6.15316 1.78165 6.31338 1.76587 6.46796 1.79662C6.62254 1.82736 6.76453 1.90326 6.87598 2.0147C6.98742 2.12615 7.06332 2.26814 7.09406 2.42272C7.12481 2.5773 7.10903 2.73752 7.04872 2.88313C6.9884 3.02874 6.88627 3.1532 6.75522 3.24076C6.62417 3.32832 6.47011 3.37505 6.3125 3.37505H5.51562V2.57818ZM2.89062 2.57818C2.89062 2.36684 2.97458 2.16415 3.12402 2.0147C3.27347 1.86526 3.47616 1.7813 3.6875 1.7813C3.89884 1.7813 4.10153 1.86526 4.25098 2.0147C4.40042 2.16415 4.48438 2.36684 4.48438 2.57818V3.37505H3.6875C3.47616 3.37505 3.27347 3.2911 3.12402 3.14166C2.97458 2.99221 2.89062 2.78952 2.89062 2.57818ZM5.51562 11.2501H8.60938C8.74613 11.2501 8.87728 11.1957 8.97398 11.099C9.07067 11.0023 9.125 10.8712 9.125 10.7344V6.75005H5.51562V11.2501ZM0.875 10.7344C0.875 10.8712 0.929325 11.0023 1.02602 11.099C1.12272 11.1957 1.25387 11.2501 1.39062 11.2501H4.48438V6.75005H0.875V10.7344Z" fill="#828282"/>
</svg>
